PathFileType	4	(X/Y/Z)	C:/Users/opensim2020/Desktop/walking_exp_matlab/subject01_walking15_straight_03.trc	
DataRate	CameraRate	NumFrames	NumMarkers	Units	OrigDataRate	OrigDataStartFrame	OrigNumFrames	
100.00	100.00	7	43	mm	100.00	1618	145	
Frame#	Time	LFHD			RFHD			LBHD			RBHD			C7			T10			CLAV			STRN			RBAK			LSHO			LUPA			LELB			LFRM			LWRA			LWRB			LFIN			RSHO			RUPA			RELB			RFRM			RWRA			RWRB			RFIN			LASI			RASI			LPSI			RPSI			LTHI			LKNE			LTIB			LANK			LHEE			LTOE			RTHI			RKNE			RTIB			RANK			RHEE			RTOE			*39			*40			*41			*42			
		X1	Y1	Z1	X2	Y2	Z2	X3	Y3	Z3	X4	Y4	Z4	X5	Y5	Z5	X6	Y6	Z6	X7	Y7	Z7	X8	Y8	Z8	X9	Y9	Z9	X10	Y10	Z10	X11	Y11	Z11	X12	Y12	Z12	X13	Y13	Z13	X14	Y14	Z14	X15	Y15	Z15	X16	Y16	Z16	X17	Y17	Z17	X18	Y18	Z18	X19	Y19	Z19	X20	Y20	Z20	X21	Y21	Z21	X22	Y22	Z22	X23	Y23	Z23	X24	Y24	Z24	X25	Y25	Z25	X26	Y26	Z26	X27	Y27	Z27	X28	Y28	Z28	X29	Y29	Z29	X30	Y30	Z30	X31	Y31	Z31	X32	Y32	Z32	X33	Y33	Z33	X34	Y34	Z34	X35	Y35	Z35	X36	Y36	Z36	X37	Y37	Z37	X38	Y38	Z38	X39	Y39	Z39	X40	Y40	Z40	X41	Y41	Z41	X42	Y42	Z42	X43	Y43	Z43	

19	0.180	1424.01465	-566.65051	1633.70544	1532.64966	-534.84528	1643.50500	1453.39026	-681.44775	1597.16736	1568.92102	-650.55750	1606.17029	1491.62561	-724.35748	1407.71887	1510.34436	-778.28784	1115.62659	1494.88684	-581.49231	1333.31152	1497.49585	-551.09491	1175.95093	1578.59314	-788.85376	1224.09668	1333.80933	-639.94019	1365.66443	1251.50903	-709.52606	1190.95923	1252.87805	-762.04871	1056.29565	1220.00220	-779.49890	948.89014	1226.83093	-767.06335	807.18872	1206.17212	-817.43488	832.76978	1186.72424	-811.56592	750.54779	1642.67798	-640.79749	1383.36633	1754.54138	-725.85999	1203.35254	1777.52209	-730.55981	1077.77051	1810.45264	-646.07397	989.08868	1790.98865	-514.77472	941.63428	1829.59204	-548.68427	916.87091	1835.19812	-470.06293	883.28674	1420.32251	-602.61542	909.18909	1635.99658	-622.50287	907.71820	1447.87561	-791.92383	914.60730	1590.24329	-804.09021	927.14160	1358.03882	-531.40363	599.66486	1378.04761	-497.27615	470.67844	1373.61963	-505.30606	282.41324	1429.48022	-480.16623	66.45860	1487.35144	-515.98273	34.09100	1416.15515	-335.80423	52.36277	1702.30737	-752.07904	592.23132	1691.45422	-790.42584	433.39114	1695.75208	-927.61121	317.84961	1660.58081	-1052.12793	148.61610	1606.11414	-1105.80774	144.75545	1669.79871	-970.76410	30.02982	1510.96887	-547.64960	1676.48083	-3101.90942	1973.10254	1023.55835	-3140.77563	2012.53894	1022.05542			 
20	0.190	1421.56592	-554.09460	1634.59717	1530.26758	-522.60785	1644.46619	1450.57361	-668.76294	1597.89905	1566.23096	-638.38617	1606.96375	1489.15369	-711.14282	1408.16345	1509.43628	-765.09076	1116.31580	1492.60364	-568.67761	1333.80664	1495.82849	-537.86755	1176.49011	1576.39343	-775.71655	1224.41174	1331.40955	-627.19843	1365.06165	1249.89771	-695.70636	1189.29211	1251.93359	-747.99396	1054.57922	1219.44604	-765.18439	947.00958	1226.38599	-752.04413	805.44580	1206.02490	-802.80273	830.75330	1187.01807	-796.75537	748.44055	1640.66321	-627.98615	1383.84204	1752.18689	-714.02222	1203.90344	1775.34131	-718.92163	1078.25989	1808.28125	-635.04840	988.91821	1788.56738	-504.20483	940.36871	1827.29883	-538.22571	915.89874	1832.69336	-459.83856	881.70197	1419.63123	-589.01227	909.51849	1634.95642	-608.76007	907.38904	1447.24414	-778.16370	915.53326	1590.09094	-789.91547	926.35486	1355.62634	-520.35992	600.21881	1377.63831	-483.38446	472.40253	1372.95618	-494.90280	283.85605	1428.93860	-476.41913	67.16251	1486.53247	-514.73431	35.35199	1418.00659	-332.70990	47.82719	1701.70142	-733.83099	590.36542	1692.76501	-770.58838	431.51831	1696.13745	-911.77393	320.86462	1661.06848	-1041.98022	156.04805	1605.81335	-1094.04590	155.92957	1669.60950	-972.09247	30.25810	1508.57495	-535.49695	1677.48877	-3102.03418	1973.04028	1023.85266	-3140.73071	2012.50708	1022.14374			 
21	0.200	1419.05481	-541.62415	1635.23010	1527.66309	-510.49704	1645.30505	1447.84363	-656.34363	1598.62402	1563.52271	-626.14563	1607.80688	1486.88892	-697.78180	1408.92883	1508.64648	-752.05334	1117.07727	1490.46362	-555.80151	1334.48511	1494.33545	-524.75305	1177.09265	1574.40942	-762.76019	1225.16150	1329.19666	-614.50940	1364.56140	1248.43372	-681.59375	1188.02087	1251.02820	-733.63672	1053.10144	1218.91809	-750.08997	945.23907	1226.47095	-736.13794	803.87659	1205.82385	-787.01166	828.76343	1187.29224	-780.83142	746.54358	1638.61719	-615.07385	1384.43982	1749.70837	-702.34137	1204.75928	1772.99866	-707.47595	1079.16492	1805.85864	-624.44672	988.81866	1786.00476	-494.25317	938.63422	1824.89490	-528.49463	914.65778	1830.17969	-450.59271	879.49982	1418.64783	-575.52820	910.29333	1633.64697	-595.13696	907.23523	1446.99023	-764.62500	916.59167	1590.33289	-776.07367	926.16766	1354.06482	-509.32181	600.89178	1377.36108	-471.16797	474.25574	1371.37854	-485.10074	285.10413	1429.09900	-474.33716	66.97645	1486.43347	-513.58044	36.05842	1418.13794	-331.19440	44.48157	1701.46802	-714.83063	588.28986	1694.48474	-749.59222	429.33588	1696.58960	-894.20673	323.51422	1661.36169	-1029.91895	163.42358	1604.90100	-1079.57898	166.72179	1668.63977	-971.82281	31.17193	1505.93994	-523.10052	1678.50012	-3101.97485	1973.03625	1023.96783	-3140.82544	2012.44177	1022.08588			 
22	0.210	1416.43860	-529.29352	1635.61035	1525.16479	-498.21487	1645.98572	1445.11560	-643.89825	1598.83118	1560.81274	-614.02856	1608.40417	1484.73340	-684.65082	1409.51062	1507.82739	-739.09338	1117.54626	1488.51013	-542.93329	1335.07593	1492.96069	-511.71964	1177.59204	1572.72668	-749.87170	1226.05957	1327.17480	-601.78668	1364.24463	1247.01892	-667.44342	1187.02051	1250.15320	-719.00104	1051.70117	1218.52039	-734.36267	943.65967	1226.44299	-719.42749	802.19275	1205.68188	-770.29926	826.84882	1187.55371	-763.42560	744.36371	1636.58899	-602.11768	1385.18140	1747.18372	-690.84674	1205.86536	1770.53455	-696.14703	1080.36914	1803.33032	-614.26373	988.78851	1783.42175	-484.93134	936.53241	1822.44043	-519.45007	913.14282	1827.64417	-442.20306	876.71008	1417.34033	-562.44049	911.42981	1632.17810	-581.62952	907.12958	1447.03809	-751.63849	917.74646	1590.53125	-762.28107	925.75891	1352.65259	-498.61371	601.13123	1376.89490	-460.65131	474.78455	1370.19238	-476.60953	285.33563	1429.81348	-473.23108	67.14391	1486.67261	-512.42682	36.32217	1417.41797	-329.97818	41.88380	1701.68701	-695.38873	586.12286	1696.19568	-727.66937	427.38513	1697.19507	-875.60938	326.18335	1661.42810	-1015.92200	170.32976	1604.06750	-1064.35767	176.69753	1667.32446	-967.17694	33.53130	1503.18970	-510.65692	1679.28943	-3101.96265	1973.18872	1023.49152	-3140.80981	2012.47510	1022.10504			 
23	0.220	1413.75415	-517.09564	1635.80811	1522.47278	-486.25421	1646.61292	1442.41736	-631.84015	1598.94836	1558.14673	-602.01050	1608.84827	1482.65283	-671.66467	1409.81006	1507.08655	-726.30328	1118.03601	1486.56201	-530.18134	1335.47644	1491.74390	-498.85065	1178.03125	1571.22217	-737.07813	1226.87231	1325.38892	-588.94165	1364.03479	1245.71423	-653.41180	1186.23206	1249.28162	-704.02655	1050.42249	1218.04590	-718.21216	942.03925	1226.47180	-701.50153	800.79993	1205.69458	-752.74390	824.87415	1187.79358	-744.96399	742.28418	1634.60315	-589.29877	1385.89563	1744.84033	-679.38232	1207.04907	1768.08374	-684.97687	1081.75305	1800.85217	-604.62659	988.69714	1780.95166	-476.15347	933.99133	1819.87073	-511.18546	911.12671	1825.14490	-434.54834	873.42236	1415.98303	-549.85944	912.69971	1630.55212	-568.30518	907.04718	1447.26392	-739.10468	918.68677	1590.79846	-748.90790	925.44067	1351.53442	-488.68503	600.90869	1375.75842	-451.26440	474.19458	1369.78931	-470.39359	284.07300	1430.23486	-472.03989	67.18660	1486.70313	-511.81314	36.76984	1417.63306	-328.60019	39.88346	1702.12720	-675.72278	583.88434	1697.21973	-705.45758	425.40674	1697.54993	-855.74072	327.87521	1661.06323	-1000.87671	177.42877	1603.41199	-1048.79785	186.13214	1665.96216	-959.84656	38.03983	1500.40955	-498.41550	1679.84839	-3101.94116	1973.16101	1023.66962	-3140.67090	2012.51099	1022.03876			 
24	0.230	1411.14099	-504.94678	1636.14966	1519.83875	-474.28394	1647.35034	1439.76379	-619.60931	1598.87622	1555.51807	-589.97498	1609.33142	1480.80420	-659.25897	1409.99524	1506.27356	-713.53601	1118.53955	1484.91357	-517.49884	1335.87756	1490.68127	-486.08948	1178.45764	1569.93823	-724.42334	1227.60815	1323.71216	-576.06360	1363.98169	1244.60071	-639.25269	1185.64929	1248.39124	-688.76868	1049.02368	1217.51514	-701.47467	940.36273	1226.62927	-682.84888	799.40234	1205.68665	-734.32623	822.71558	1188.04968	-725.25378	740.15424	1632.73950	-576.62909	1386.64270	1742.73242	-667.95892	1208.28064	1765.72876	-673.95050	1083.13684	1798.31360	-595.20026	988.45227	1778.41089	-467.94638	930.99701	1817.30786	-503.44656	908.70831	1822.52344	-427.64014	869.46851	1414.38477	-537.75256	913.98285	1628.80920	-555.36322	906.98059	1447.69507	-726.88568	919.58801	1591.22205	-735.84174	925.08295	1350.23926	-479.17667	600.25958	1374.10071	-443.21146	472.34076	1369.67542	-465.94159	282.38632	1430.44666	-470.72736	66.99215	1486.78027	-511.35907	37.01331	1418.07043	-327.32880	38.64882	1702.50012	-655.89111	581.86053	1697.69385	-682.69446	423.48209	1697.82263	-834.96960	329.42084	1660.04285	-984.37628	184.85677	1602.68945	-1032.10913	196.95166	1665.88232	-951.05493	43.78188	1497.70300	-486.57565	1680.38684	-3101.85547	1973.13660	1023.47272	-3140.78687	2012.44519	1022.03943			 
25	0.240	1408.63489	-492.75211	1636.62915	1517.34546	-462.23361	1648.28894	1437.29333	-607.36566	1599.11230	1552.97668	-577.86090	1610.04175	1479.14636	-647.15991	1410.31812	1505.45532	-701.07843	1119.21179	1483.54089	-504.90872	1336.37793	1489.74121	-473.58673	1178.94849	1568.79907	-711.97437	1228.51367	1322.21704	-563.17523	1364.01575	1243.53748	-625.27026	1185.16919	1247.52551	-673.40100	1047.73950	1217.09473	-684.33032	938.67065	1226.90454	-663.33472	798.10242	1205.50037	-715.05524	820.40802	1188.32019	-704.43890	738.05823	1631.10168	-564.06268	1387.51721	1740.94214	-656.42792	1209.53442	1763.40369	-663.10828	1084.44617	1795.92468	-586.15100	988.02930	1775.89490	-460.25345	927.54767	1814.89478	-496.25644	906.06470	1820.04443	-421.36658	865.14893	1412.64160	-525.77588	915.33966	1627.12427	-542.86731	907.01508	1448.09570	-714.93695	920.44769	1591.63867	-722.93054	924.24396	1349.02063	-470.29373	599.00256	1372.27979	-436.13596	470.06375	1369.61914	-462.77859	281.15137	1430.64478	-470.45319	67.11943	1486.91687	-510.99750	37.16281	1417.50220	-326.56363	37.80531	1702.61877	-636.07678	579.95734	1697.74194	-659.20557	421.51312	1698.03125	-813.02972	330.91544	1658.39172	-966.80658	192.94110	1601.00244	-1013.67651	207.64545	1666.68909	-940.23914	50.71955	1495.00818	-474.92334	1681.02954	-3101.86060	1973.11743	1023.47937	-3140.76978	2012.50891	1022.12207			 
